<svg id="svg" version="1.1" xmlns="http://www.w3.org/2000/svg" xmlns:xlink="http://www.w3.org/1999/xlink" width="400" height="642.1052631578947" viewBox="0, 0, 400,642.1052631578947"><g id="svgg"><path id="path0" d="M137.000 192.209 C 135.328 193.575,135.210 197.419,136.800 198.742 C 140.704 201.989,145.477 196.042,141.772 192.547 C 140.056 190.929,138.685 190.832,137.000 192.209 M71.295 209.885 L 71.400 225.800 75.600 225.800 L 79.800 225.800 80.000 214.200 L 80.200 202.600 84.040 202.486 C 87.103 202.395,87.982 202.497,88.389 202.986 C 88.669 203.324,89.137 203.600,89.429 203.600 C 91.527 203.600,93.516 211.242,91.905 213.119 C 91.584 213.494,91.213 214.107,91.080 214.483 C 90.620 215.782,87.805 217.157,85.017 217.442 L 82.373 217.713 82.487 221.757 L 82.600 225.800 85.600 225.779 C 88.481 225.758,89.747 225.457,92.800 224.062 C 94.344 223.357,99.599 218.286,99.602 217.497 C 99.604 217.224,99.898 216.460,100.257 215.800 C 101.120 214.210,101.264 205.904,100.458 204.168 C 100.160 203.526,99.620 202.370,99.258 201.601 C 98.536 200.065,95.523 196.930,94.223 196.362 C 93.770 196.164,93.130 195.843,92.800 195.648 C 91.011 194.591,88.098 194.245,79.895 194.112 L 71.191 193.970 71.295 209.885 M150.095 209.900 L 150.200 225.800 153.900 225.915 L 157.600 226.030 157.600 210.015 L 157.600 194.000 153.795 194.000 L 149.991 194.000 150.095 209.900 M208.338 195.178 C 202.826 197.970,202.327 199.536,202.116 214.688 L 201.964 225.576 202.882 225.806 C 203.387 225.932,205.330 225.983,207.200 225.918 L 210.600 225.800 210.804 215.200 C 211.040 202.924,211.153 202.400,213.580 202.400 C 216.277 202.400,216.400 202.968,216.400 215.394 L 216.400 226.028 220.500 225.914 L 224.600 225.800 224.600 213.320 C 224.600 203.868,224.479 200.718,224.100 200.340 C 223.825 200.065,223.600 199.523,223.600 199.135 C 223.600 198.156,220.520 195.290,219.143 194.987 C 218.519 194.851,217.906 194.572,217.781 194.369 C 217.204 193.435,210.673 193.995,208.338 195.178 M112.800 203.800 C 112.250 204.114,111.530 204.380,111.200 204.391 C 110.506 204.413,107.784 206.899,106.568 208.621 C 104.755 211.190,104.595 218.355,106.313 220.073 C 106.581 220.341,106.800 220.733,106.800 220.944 C 106.800 222.582,113.549 226.101,116.344 225.920 L 118.200 225.800 118.313 221.756 L 118.427 217.712 116.600 217.462 C 111.373 216.746,112.011 211.376,117.287 211.679 C 120.498 211.863,121.200 213.482,121.200 220.700 L 121.200 226.030 124.900 225.915 L 128.600 225.800 128.709 218.644 C 128.794 213.127,128.694 211.295,128.273 210.644 C 127.972 210.180,127.613 209.338,127.474 208.773 C 127.174 207.554,124.109 204.401,123.221 204.398 C 122.879 204.396,122.084 204.126,121.454 203.798 C 119.937 203.006,114.185 203.008,112.800 203.800 M135.694 214.500 L 135.800 225.800 139.400 225.800 L 143.000 225.800 143.106 214.500 L 143.212 203.200 139.400 203.200 L 135.588 203.200 135.694 214.500 M163.609 211.300 C 163.618 219.881,163.858 221.190,165.855 223.575 C 167.680 225.754,171.450 226.641,173.416 225.353 C 174.602 224.575,175.640 225.161,175.310 226.422 C 174.931 227.874,172.808 228.984,170.000 229.200 L 167.400 229.400 167.282 232.800 C 167.129 237.173,167.533 237.600,171.821 237.600 C 173.433 237.600,174.852 237.440,174.973 237.244 C 175.094 237.049,175.675 236.768,176.265 236.619 C 178.349 236.096,181.085 233.534,182.476 230.800 L 183.800 228.200 183.921 215.700 L 184.042 203.200 180.221 203.200 L 176.400 203.200 176.400 209.181 C 176.400 216.736,175.945 217.882,173.215 217.213 C 171.864 216.881,171.686 215.965,171.640 209.100 L 171.600 203.200 167.600 203.200 L 163.600 203.200 163.609 211.300 M238.400 203.568 C 238.400 203.771,237.815 204.064,237.100 204.219 C 227.775 206.247,228.130 221.105,237.600 225.156 C 240.625 226.450,247.983 225.550,248.328 223.844 C 248.655 222.231,244.780 218.800,242.624 218.794 C 240.365 218.787,240.144 218.684,238.886 217.046 C 235.782 213.004,240.897 206.097,244.400 209.600 C 245.961 211.161,244.988 212.400,242.202 212.400 C 240.771 212.400,240.753 212.420,240.876 213.900 L 241.000 215.400 247.200 215.400 L 253.400 215.400 253.361 213.400 C 253.287 209.529,250.799 206.033,246.710 204.053 C 244.859 203.157,238.400 202.780,238.400 203.568 M258.800 209.623 C 258.800 219.653,260.256 224.800,263.092 224.800 C 263.321 224.800,264.024 225.069,264.654 225.398 C 266.581 226.402,269.283 226.160,271.994 224.739 L 274.399 223.478 276.100 224.182 C 277.035 224.569,278.278 225.137,278.862 225.443 C 282.056 227.118,287.057 225.225,289.544 221.400 C 290.564 219.830,290.587 219.643,290.732 211.500 L 290.881 203.200 286.840 203.200 L 282.800 203.200 282.800 209.600 C 282.800 216.863,282.450 217.865,280.127 217.244 L 279.000 216.943 278.891 210.072 L 278.781 203.200 275.018 203.200 L 271.255 203.200 271.128 209.636 C 270.984 216.880,270.578 217.899,268.099 217.237 L 267.000 216.943 266.891 210.072 L 266.781 203.200 262.791 203.200 L 258.800 203.200 258.800 209.623 M304.200 203.981 C 300.971 205.444,299.630 207.675,299.200 212.305 C 298.898 215.555,297.999 216.961,295.936 217.414 L 294.773 217.670 294.886 221.735 L 295.000 225.800 296.692 225.923 C 297.622 225.990,298.972 225.790,299.692 225.479 C 300.411 225.167,301.475 224.720,302.056 224.485 C 303.489 223.905,306.137 220.668,306.474 219.086 C 306.624 218.379,306.936 217.080,307.167 216.200 C 307.398 215.320,307.685 214.100,307.804 213.489 C 307.954 212.722,308.452 212.171,309.411 211.714 L 310.800 211.052 310.800 207.126 L 310.800 203.200 308.300 203.228 C 306.798 203.245,305.161 203.546,304.200 203.981 " stroke="none" fill="#f8f5fc" fill-rule="evenodd"></path><path id="path1" d="M0.000 321.000 L 0.000 642.000 200.000 642.000 L 400.000 642.000 400.000 321.000 L 400.000 0.000 200.000 0.000 L 0.000 0.000 0.000 321.000 M142.590 191.471 C 144.422 193.081,144.589 197.221,142.899 199.100 C 140.459 201.811,136.392 200.831,134.666 197.115 C 132.598 192.661,138.865 188.198,142.590 191.471 M90.400 193.800 C 90.674 194.130,91.512 194.400,92.262 194.400 C 93.105 194.400,93.713 194.629,93.855 195.000 C 93.982 195.330,94.381 195.604,94.743 195.609 C 95.511 195.619,99.200 198.876,99.200 199.545 C 99.200 199.795,99.347 200.000,99.526 200.000 C 101.237 200.000,103.268 209.114,102.236 212.156 C 101.886 213.185,101.600 214.657,101.600 215.427 C 101.600 216.301,101.375 216.911,101.000 217.055 C 100.670 217.182,100.400 217.544,100.400 217.859 C 100.400 219.389,96.391 223.490,93.616 224.799 C 92.617 225.270,91.322 225.913,90.738 226.227 C 89.657 226.811,83.124 227.053,81.833 226.557 C 81.305 226.355,81.200 225.526,81.200 221.557 L 81.200 216.800 83.087 216.800 C 88.212 216.800,91.201 214.189,91.199 209.713 C 91.198 205.482,88.551 203.247,83.506 203.216 L 80.812 203.200 80.706 214.900 L 80.600 226.600 76.057 226.714 C 73.050 226.789,71.326 226.671,70.957 226.365 C 70.365 225.873,70.084 194.049,70.667 193.467 C 71.276 192.857,89.878 193.171,90.400 193.800 M158.304 209.900 L 158.200 226.600 153.942 226.713 C 147.846 226.875,148.400 228.560,148.400 209.851 C 148.400 191.464,147.828 193.200,153.884 193.200 L 158.409 193.200 158.304 209.900 M219.988 194.040 C 220.874 194.503,221.600 195.043,221.600 195.240 C 221.600 195.438,221.796 195.600,222.036 195.600 C 222.576 195.600,223.969 197.228,223.987 197.880 C 223.994 198.144,224.267 198.510,224.594 198.692 C 225.635 199.275,226.119 203.897,226.275 214.754 C 226.461 227.751,226.913 226.800,220.552 226.800 C 214.772 226.800,215.200 227.768,215.200 214.706 C 215.200 203.600,215.137 203.200,213.372 203.200 C 212.142 203.200,212.010 204.461,212.004 216.257 C 211.999 227.943,212.585 226.800,206.600 226.800 C 204.326 226.800,202.181 226.691,201.833 226.557 C 200.916 226.206,200.898 202.633,201.813 201.424 C 202.136 200.996,202.400 200.226,202.400 199.711 C 202.400 199.196,202.670 198.671,203.000 198.545 C 203.330 198.418,203.600 198.076,203.600 197.784 C 203.600 197.112,206.879 194.400,207.692 194.400 C 208.028 194.400,208.526 194.130,208.800 193.800 C 209.647 192.780,217.910 192.958,219.988 194.040 M122.400 203.000 C 122.674 203.330,123.260 203.600,123.702 203.600 C 124.410 203.600,126.834 205.733,128.341 207.682 C 130.038 209.877,131.178 224.478,129.773 226.029 C 128.751 227.160,113.281 227.094,111.831 225.953 C 111.304 225.539,110.599 225.200,110.263 225.200 C 109.549 225.200,105.201 220.972,105.198 220.274 C 105.196 220.013,104.894 219.260,104.527 218.600 C 102.149 214.330,106.627 203.600,110.786 203.600 C 111.248 203.600,111.729 203.330,111.855 203.000 C 112.043 202.512,113.000 202.400,116.994 202.400 C 120.869 202.400,122.007 202.526,122.400 203.000 M143.906 214.500 L 143.800 226.600 139.700 226.714 C 133.480 226.887,134.000 227.972,134.000 214.819 C 134.000 201.017,133.416 202.400,139.249 202.400 L 144.012 202.400 143.906 214.500 M172.710 209.291 C 172.808 215.320,172.892 216.021,173.557 216.377 C 174.727 217.003,174.800 216.624,174.800 209.966 C 174.800 206.501,174.909 203.381,175.043 203.033 C 175.378 202.160,184.446 202.091,185.163 202.956 C 185.805 203.729,185.550 225.500,184.871 228.000 C 183.878 231.649,179.475 237.200,177.572 237.200 C 177.201 237.200,176.674 237.470,176.400 237.800 C 176.017 238.262,174.961 238.400,171.823 238.400 C 166.395 238.400,166.000 238.021,166.000 232.811 C 166.000 228.698,166.227 228.400,169.364 228.400 C 170.475 228.400,171.689 228.090,172.490 227.601 L 173.800 226.803 170.961 226.801 C 168.724 226.800,167.932 226.635,167.224 226.021 C 166.730 225.593,166.199 225.188,166.045 225.121 C 165.890 225.054,165.097 224.119,164.282 223.042 L 162.800 221.085 162.800 212.009 C 162.800 207.017,162.925 202.808,163.079 202.655 C 163.232 202.501,165.437 202.426,167.979 202.488 L 172.600 202.600 172.710 209.291 M247.200 203.000 C 247.474 203.330,247.952 203.600,248.262 203.600 C 248.571 203.600,248.929 203.870,249.055 204.200 C 249.182 204.530,249.515 204.800,249.796 204.800 C 250.460 204.800,253.200 207.833,253.200 208.568 C 253.200 208.879,253.425 209.208,253.700 209.300 C 254.044 209.414,254.200 210.455,254.200 212.633 L 254.200 215.800 247.100 215.800 C 243.037 215.800,240.000 215.958,240.000 216.169 C 240.001 217.252,241.401 218.000,243.431 218.000 C 245.485 218.000,245.583 218.053,247.284 220.100 C 249.520 222.790,250.397 224.465,249.692 224.702 C 249.412 224.795,248.368 225.306,247.370 225.836 C 244.883 227.159,238.689 227.257,237.091 226.000 C 236.531 225.560,235.780 225.200,235.420 225.200 C 232.670 225.200,228.549 218.082,228.905 213.947 C 229.096 211.728,230.043 208.800,230.906 207.756 C 232.592 205.717,235.108 203.600,235.844 203.600 C 236.316 203.600,236.926 203.330,237.200 203.000 C 237.589 202.532,238.686 202.400,242.200 202.400 C 245.714 202.400,246.811 202.532,247.200 203.000 M267.600 208.756 C 267.600 214.436,267.682 215.212,268.370 216.056 C 269.471 217.405,269.576 216.859,269.697 209.200 L 269.800 202.600 274.600 202.600 L 279.400 202.600 279.600 209.316 C 279.759 214.638,279.922 216.106,280.388 216.394 C 281.336 216.978,281.390 216.669,281.600 209.468 L 281.800 202.600 286.800 202.600 L 291.800 202.600 291.771 210.600 C 291.734 220.901,290.655 224.303,287.063 225.443 C 286.609 225.588,285.991 225.952,285.690 226.253 C 284.822 227.121,279.377 226.955,277.400 226.000 C 275.342 225.006,273.271 225.006,272.000 226.000 C 268.499 228.739,261.045 226.089,258.783 221.301 L 257.600 218.798 257.600 210.866 C 257.600 206.503,257.720 202.813,257.867 202.667 C 258.013 202.520,260.263 202.400,262.867 202.400 L 267.600 202.400 267.600 208.756 M312.000 207.173 C 312.000 211.772,311.967 211.956,311.100 212.231 C 309.039 212.883,308.426 213.697,308.411 215.800 C 308.386 219.149,304.850 225.132,302.863 225.186 C 302.568 225.194,301.869 225.560,301.309 226.000 C 300.507 226.631,299.686 226.800,297.423 226.800 C 293.256 226.800,293.146 226.662,293.285 221.637 C 293.407 217.231,293.473 217.088,295.600 216.634 C 297.277 216.276,298.400 214.131,298.400 211.288 C 298.400 207.917,300.764 203.600,302.609 203.600 C 302.880 203.600,303.326 203.330,303.600 203.000 C 303.981 202.541,305.025 202.400,308.049 202.400 L 312.000 202.400 312.000 207.173 M240.662 210.331 C 239.613 211.490,239.874 211.831,241.700 211.685 C 244.376 211.471,244.628 211.315,243.792 210.392 C 242.896 209.401,241.528 209.375,240.662 210.331 M115.015 213.184 C 113.514 214.842,114.849 216.604,117.800 216.861 C 119.395 217.000,119.400 216.996,119.526 215.461 C 119.751 212.723,116.786 211.227,115.015 213.184 " stroke="none" fill="#8404fc" fill-rule="evenodd"></path><path id="path2" d="M136.966 191.796 C 133.615 194.675,135.119 200.003,139.283 199.998 C 143.594 199.994,145.409 194.129,141.853 191.692 C 140.134 190.515,138.414 190.551,136.966 191.796 M141.772 192.547 C 145.477 196.042,140.704 201.989,136.800 198.742 C 135.210 197.419,135.328 193.575,137.000 192.209 C 138.685 190.832,140.056 190.929,141.772 192.547 M71.300 193.647 C 70.524 194.443,70.580 225.320,71.358 225.965 C 71.724 226.269,73.348 226.389,76.058 226.314 L 80.200 226.200 80.400 214.600 L 80.600 203.000 83.771 202.882 C 94.367 202.487,95.487 215.801,84.964 217.067 L 82.200 217.400 82.086 221.700 C 82.024 224.065,82.114 226.000,82.286 226.001 C 82.459 226.001,82.544 224.137,82.475 221.859 L 82.351 217.716 85.006 217.443 C 87.805 217.157,90.619 215.785,91.080 214.483 C 91.213 214.107,91.584 213.494,91.905 213.119 C 93.516 211.242,91.527 203.600,89.429 203.600 C 89.137 203.600,88.669 203.324,88.389 202.986 C 87.982 202.497,87.103 202.395,84.040 202.486 L 80.200 202.600 80.000 214.200 L 79.800 225.800 75.600 225.800 L 71.400 225.800 71.295 209.885 L 71.191 193.970 79.895 194.112 C 88.098 194.245,91.011 194.591,92.800 195.648 C 93.130 195.843,93.770 196.164,94.223 196.362 C 95.523 196.930,98.536 200.065,99.258 201.601 C 99.620 202.370,100.160 203.526,100.458 204.168 C 101.264 205.904,101.120 214.210,100.257 215.800 C 99.898 216.460,99.604 217.224,99.602 217.497 C 99.588 220.332,91.248 225.469,85.800 225.998 L 83.000 226.271 85.614 226.335 C 91.789 226.488,96.984 223.175,100.567 216.800 C 101.968 214.307,101.761 205.340,100.229 202.200 C 99.101 199.887,95.549 196.000,94.564 196.000 C 94.308 196.000,93.874 195.730,93.600 195.400 C 93.326 195.070,92.696 194.800,92.200 194.800 C 91.704 194.800,90.601 194.494,89.749 194.119 C 87.697 193.218,72.108 192.819,71.300 193.647 M150.300 193.632 C 149.652 194.010,149.600 195.222,149.600 210.012 L 149.600 225.985 150.501 226.211 C 150.997 226.335,152.842 226.384,154.601 226.319 L 157.800 226.200 157.905 210.026 C 157.987 197.353,157.900 193.784,157.505 193.533 C 156.778 193.071,151.129 193.149,150.300 193.632 M211.200 193.583 C 207.576 194.338,202.800 198.259,202.800 200.480 C 202.800 200.759,203.161 200.315,203.602 199.492 C 205.533 195.888,209.161 194.000,214.154 194.000 C 216.023 194.000,217.655 194.166,217.781 194.369 C 217.906 194.572,218.519 194.851,219.143 194.987 C 220.520 195.290,223.600 198.156,223.600 199.135 C 223.600 199.523,223.825 200.065,224.100 200.340 C 224.479 200.718,224.600 203.868,224.600 213.320 L 224.600 225.800 220.500 225.914 L 216.400 226.028 216.400 215.394 C 216.400 202.968,216.277 202.400,213.580 202.400 C 211.153 202.400,211.040 202.924,210.804 215.200 L 210.600 225.800 207.200 225.918 C 205.330 225.983,203.387 225.932,202.882 225.806 L 201.964 225.576 202.127 214.688 C 202.217 208.700,202.402 203.170,202.540 202.400 C 202.679 201.618,202.530 201.883,202.202 203.000 C 201.199 206.419,201.341 225.433,202.374 225.986 C 203.204 226.430,209.211 226.547,210.700 226.148 L 211.600 225.907 211.600 215.379 C 211.600 203.803,211.755 202.800,213.541 202.800 C 215.713 202.800,215.782 203.151,216.000 215.161 L 216.200 226.200 220.342 226.314 C 226.189 226.476,225.711 227.663,225.534 213.416 C 225.386 201.617,225.366 201.365,224.408 199.474 C 221.949 194.620,216.945 192.388,211.200 193.583 M157.600 210.015 L 157.600 226.030 153.900 225.915 L 150.200 225.800 150.095 209.900 L 149.991 194.000 153.795 194.000 L 157.600 194.000 157.600 210.015 M113.600 202.962 C 110.646 204.075,110.157 204.345,108.728 205.655 C 105.220 208.872,103.918 212.645,104.831 216.946 C 105.113 218.277,105.421 219.138,105.514 218.859 C 105.607 218.580,105.478 217.538,105.228 216.544 C 104.042 211.835,107.206 205.924,111.911 204.059 C 114.167 203.165,119.758 202.994,121.393 203.770 C 122.123 204.116,122.973 204.400,123.282 204.400 C 124.121 204.400,127.184 207.595,127.474 208.773 C 127.613 209.338,127.972 210.180,128.273 210.644 C 128.694 211.295,128.794 213.127,128.709 218.644 L 128.600 225.800 125.000 226.033 L 121.400 226.265 125.200 226.233 L 129.000 226.200 129.000 218.200 C 129.000 207.108,127.917 205.210,120.203 202.778 C 118.520 202.247,115.257 202.338,113.600 202.962 M135.500 202.832 C 134.860 203.205,134.800 204.193,134.800 214.406 C 134.800 227.485,134.377 226.498,139.903 226.316 L 143.400 226.200 143.506 214.627 C 143.589 205.636,143.500 202.983,143.106 202.734 C 142.377 202.271,136.329 202.349,135.500 202.832 M164.100 202.812 C 163.204 203.173,163.200 203.208,163.291 211.287 L 163.382 219.400 163.500 211.300 L 163.617 203.200 167.608 203.200 L 171.600 203.200 171.640 209.100 C 171.685 215.734,171.893 216.945,173.018 217.113 C 173.737 217.220,173.744 217.195,173.100 216.795 C 172.479 216.409,172.400 215.614,172.400 209.770 L 172.400 203.180 171.374 202.790 C 170.105 202.308,165.319 202.322,164.100 202.812 M176.300 202.832 C 175.679 203.194,175.600 203.971,175.600 209.740 C 175.600 214.262,175.454 216.386,175.120 216.720 C 174.829 217.011,174.804 217.200,175.056 217.200 C 176.028 217.200,176.400 214.983,176.400 209.181 L 176.400 203.200 180.221 203.200 L 184.042 203.200 183.921 215.700 L 183.800 228.200 182.476 230.800 C 181.085 233.534,178.349 236.096,176.265 236.619 C 175.675 236.768,175.094 237.049,174.973 237.244 C 174.852 237.440,173.433 237.600,171.821 237.600 C 167.533 237.600,167.129 237.173,167.282 232.800 L 167.400 229.400 170.000 229.200 C 172.808 228.984,174.931 227.874,175.310 226.422 C 175.634 225.182,174.606 224.573,173.458 225.325 C 172.938 225.666,171.902 226.024,171.156 226.120 C 170.390 226.218,170.583 226.251,171.600 226.195 C 172.590 226.141,173.715 225.966,174.100 225.806 C 174.631 225.585,174.800 225.708,174.800 226.318 C 174.800 227.569,172.349 228.800,169.857 228.800 C 167.041 228.800,166.800 229.137,166.800 233.080 C 166.800 235.787,166.938 236.538,167.547 237.147 C 168.954 238.554,173.781 238.674,175.886 237.355 C 176.373 237.050,177.012 236.800,177.306 236.800 C 178.258 236.800,182.305 232.848,183.159 231.086 C 185.025 227.230,185.746 203.735,184.026 202.814 C 183.034 202.283,177.219 202.297,176.300 202.832 M239.400 202.671 C 238.960 202.795,238.245 203.145,237.811 203.448 C 237.377 203.752,236.703 204.000,236.312 204.000 C 234.891 204.000,230.389 208.948,230.406 210.492 C 230.409 210.771,230.813 210.214,231.305 209.254 C 232.380 207.153,235.309 204.609,237.100 204.219 C 237.815 204.064,238.400 203.771,238.400 203.568 C 238.400 202.780,244.859 203.157,246.710 204.053 C 250.799 206.033,253.287 209.529,253.361 213.400 L 253.400 215.400 247.400 215.616 L 241.400 215.833 247.067 215.916 C 254.141 216.021,254.000 216.073,254.000 213.344 C 254.000 206.890,245.774 200.877,239.400 202.671 M259.033 202.926 C 258.193 203.540,258.289 218.304,259.148 220.600 L 259.597 221.800 259.369 220.600 C 259.243 219.940,259.043 215.755,258.924 211.300 L 258.708 203.200 262.745 203.200 L 266.781 203.200 266.891 210.072 L 267.000 216.943 268.103 217.238 C 268.746 217.410,269.111 217.380,268.979 217.166 C 268.855 216.965,268.514 216.800,268.223 216.800 C 267.389 216.800,267.211 215.429,267.205 208.943 C 267.201 203.792,267.105 202.849,266.567 202.643 C 265.350 202.176,259.773 202.385,259.033 202.926 M271.100 202.832 C 270.479 203.194,270.400 203.971,270.400 209.740 C 270.400 213.469,270.230 216.445,270.001 216.721 C 269.782 216.986,269.917 216.926,270.301 216.588 C 270.900 216.061,271.018 215.061,271.128 209.587 L 271.255 203.200 275.018 203.200 L 278.781 203.200 278.891 210.072 L 279.000 216.943 280.127 217.244 C 282.450 217.865,282.800 216.863,282.800 209.600 L 282.800 203.200 286.840 203.200 L 290.881 203.200 290.732 211.500 C 290.535 222.553,288.981 225.133,282.000 226.007 L 279.800 226.282 281.867 226.341 C 285.636 226.448,289.831 223.515,290.776 220.111 C 291.382 217.930,291.335 203.495,290.720 202.880 C 290.065 202.225,283.962 202.241,283.096 202.900 C 282.544 203.320,282.420 204.436,282.320 209.915 C 282.192 216.852,282.005 217.472,280.236 216.818 C 279.441 216.524,279.395 216.186,279.290 209.983 C 279.222 206.000,279.009 203.251,278.741 202.929 C 278.209 202.288,272.166 202.211,271.100 202.832 M306.600 202.670 C 301.547 203.792,298.725 207.308,298.863 212.311 L 298.926 214.600 299.190 212.000 C 299.785 206.152,302.885 203.200,308.433 203.200 L 310.800 203.200 310.800 207.126 L 310.800 211.052 309.411 211.714 C 308.452 212.171,307.954 212.722,307.804 213.489 C 307.685 214.100,307.398 215.320,307.167 216.200 C 306.936 217.080,306.624 218.379,306.474 219.086 C 306.137 220.668,303.489 223.905,302.056 224.485 C 301.475 224.720,300.411 225.167,299.692 225.479 C 298.972 225.790,297.622 225.990,296.692 225.923 L 295.000 225.800 294.886 221.732 C 294.785 218.115,294.852 217.641,295.486 217.458 C 295.918 217.334,295.805 217.281,295.200 217.326 C 293.871 217.424,293.396 224.969,294.661 225.894 C 296.247 227.054,301.082 226.027,304.015 223.908 C 305.683 222.703,308.000 217.700,308.000 215.302 C 308.000 213.673,308.676 212.733,310.503 211.825 C 312.014 211.073,312.087 203.365,310.588 202.795 C 309.533 202.394,308.052 202.348,306.600 202.670 M143.106 214.500 L 143.000 225.800 139.400 225.800 L 135.800 225.800 135.694 214.500 L 135.588 203.200 139.400 203.200 L 143.212 203.200 143.106 214.500 M239.360 210.160 C 237.149 212.371,237.572 216.637,240.186 218.494 C 240.414 218.656,241.511 218.791,242.624 218.794 C 244.780 218.800,248.655 222.231,248.328 223.844 C 248.000 225.466,240.775 226.628,238.460 225.431 C 237.789 225.084,237.006 224.815,236.720 224.832 C 236.434 224.850,236.920 225.205,237.800 225.622 C 241.471 227.359,249.693 225.792,248.968 223.494 C 248.159 220.931,245.205 218.400,243.021 218.400 C 238.436 218.400,236.708 212.471,240.517 209.803 C 242.178 208.640,245.089 209.651,244.672 211.247 C 244.563 211.662,244.638 211.900,244.837 211.777 C 245.440 211.405,245.247 210.447,244.400 209.600 C 243.098 208.298,240.987 208.533,239.360 210.160 M229.905 212.000 C 229.121 214.662,229.924 218.382,231.937 221.414 C 233.164 223.261,235.433 225.100,235.905 224.629 C 236.013 224.521,235.493 224.073,234.750 223.633 C 232.082 222.053,230.641 219.122,230.406 214.800 C 230.268 212.257,230.103 211.331,229.905 212.000 M113.900 212.733 C 111.963 214.729,113.263 217.005,116.600 217.462 L 118.427 217.712 118.313 221.756 L 118.200 225.800 116.319 225.921 C 114.444 226.042,108.400 223.632,108.400 222.763 C 108.400 222.579,107.995 222.224,107.500 221.975 C 107.005 221.726,107.410 222.260,108.400 223.161 C 109.390 224.062,110.380 224.805,110.600 224.813 C 110.820 224.821,111.720 225.175,112.600 225.600 C 114.238 226.391,117.393 226.646,118.315 226.061 C 118.693 225.821,118.799 224.634,118.715 221.578 L 118.600 217.421 116.805 217.115 C 112.354 216.357,112.789 212.000,117.316 212.000 C 120.062 212.000,120.400 212.871,120.400 219.957 C 120.400 223.256,120.564 225.654,120.800 225.800 C 121.722 226.370,121.278 215.525,120.300 213.585 C 119.097 211.200,115.812 210.763,113.900 212.733 M240.667 212.267 C 240.298 212.636,240.330 215.110,240.707 215.343 C 240.876 215.447,240.949 214.839,240.868 213.991 L 240.721 212.450 242.460 212.295 L 244.200 212.140 242.567 212.070 C 241.668 212.031,240.813 212.120,240.667 212.267 M297.463 216.000 C 296.875 216.660,296.544 217.200,296.727 217.200 C 297.196 217.200,298.980 215.246,298.735 215.001 C 298.624 214.890,298.051 215.340,297.463 216.000 M163.609 219.916 C 163.578 221.695,167.275 226.024,168.791 225.984 C 169.126 225.975,168.860 225.685,168.200 225.339 C 166.531 224.463,165.288 223.079,164.386 221.093 C 163.963 220.162,163.614 219.632,163.609 219.916 M260.822 223.431 C 263.781 226.502,268.179 227.282,271.925 225.400 C 274.330 224.192,274.442 224.188,277.149 225.217 C 280.954 226.663,280.152 225.876,276.100 224.187 L 274.399 223.478 271.994 224.739 C 269.283 226.160,266.581 226.402,264.654 225.398 C 264.024 225.069,263.290 224.800,263.024 224.800 C 262.757 224.800,262.014 224.170,261.372 223.400 C 260.730 222.630,260.033 222.000,259.824 222.000 C 259.614 222.000,260.063 222.644,260.822 223.431 " stroke="none" fill="#d15dfc" fill-rule="evenodd"></path><path id="path3" d="M135.747 192.228 C 134.488 193.563,134.203 194.372,134.380 196.104 C 134.531 197.585,136.545 200.389,137.076 199.858 C 137.206 199.727,136.940 199.301,136.483 198.910 C 134.519 197.230,134.759 193.692,136.966 191.796 C 137.603 191.248,137.893 190.800,137.609 190.800 C 137.326 190.800,136.488 191.443,135.747 192.228 M70.583 193.701 C 70.027 195.150,70.613 226.137,71.200 226.317 C 71.684 226.465,71.704 226.398,71.300 225.970 C 70.593 225.220,70.574 194.386,71.280 193.680 C 71.653 193.307,71.651 193.200,71.267 193.200 C 70.997 193.200,70.688 193.425,70.583 193.701 M148.983 193.701 C 148.265 195.571,149.033 226.193,149.800 226.288 C 150.240 226.342,150.375 226.284,150.100 226.160 C 149.199 225.752,149.393 194.160,150.300 193.632 C 150.923 193.269,150.900 193.223,150.087 193.212 C 149.586 193.205,149.088 193.425,148.983 193.701 M207.805 194.425 C 205.177 195.757,203.600 197.049,203.600 197.870 C 203.600 198.161,203.423 198.400,203.208 198.400 C 202.992 198.400,202.700 198.895,202.560 199.500 C 202.420 200.105,202.054 201.003,201.746 201.495 C 200.729 203.127,201.149 226.152,202.200 226.309 C 202.931 226.419,202.940 226.392,202.300 225.995 C 201.279 225.361,201.252 206.567,202.266 202.482 C 203.475 197.617,206.554 194.550,211.200 193.583 C 212.578 193.297,212.581 193.291,211.400 193.251 C 210.740 193.229,209.122 193.757,207.805 194.425 M138.305 200.283 C 138.802 200.379,139.522 200.375,139.905 200.275 C 140.287 200.175,139.880 200.096,139.000 200.101 C 138.120 200.105,137.807 200.187,138.305 200.283 M111.333 203.411 C 105.432 206.108,102.008 213.786,104.559 218.600 C 104.909 219.260,105.196 219.996,105.198 220.236 C 105.206 221.741,111.557 226.427,113.533 226.386 C 114.228 226.372,111.330 224.837,110.564 224.814 C 109.879 224.792,106.586 221.523,105.914 220.196 C 103.341 215.121,104.406 209.619,108.728 205.655 C 110.157 204.345,110.646 204.075,113.600 202.962 C 114.430 202.650,114.674 202.441,114.200 202.450 C 113.760 202.459,112.470 202.891,111.333 203.411 M134.480 202.880 C 134.130 203.230,134.000 206.347,134.000 214.400 C 134.000 225.724,134.091 226.417,135.580 226.388 C 136.090 226.378,136.076 226.304,135.500 225.968 C 134.860 225.595,134.800 224.607,134.800 214.400 C 134.800 204.193,134.860 203.205,135.500 202.832 C 136.076 202.496,136.090 202.422,135.580 202.412 C 135.239 202.405,134.744 202.616,134.480 202.880 M163.300 202.665 C 162.758 202.884,162.553 218.264,163.058 220.792 C 163.439 222.697,167.181 226.412,168.665 226.360 C 169.692 226.324,169.714 226.296,168.897 226.060 C 164.534 224.803,163.427 221.976,163.272 211.698 L 163.143 203.195 164.072 202.823 C 164.582 202.618,164.730 202.454,164.400 202.457 C 164.070 202.460,163.575 202.554,163.300 202.665 M175.280 202.880 C 174.946 203.214,174.800 205.338,174.800 209.860 C 174.800 215.629,174.721 216.406,174.100 216.768 C 173.524 217.104,173.510 217.178,174.020 217.188 C 175.419 217.215,175.600 216.364,175.600 209.740 C 175.600 203.971,175.679 203.194,176.300 202.832 C 176.876 202.496,176.890 202.422,176.380 202.412 C 176.039 202.405,175.544 202.616,175.280 202.880 M236.800 203.267 C 235.042 204.085,231.935 206.286,231.664 206.904 C 231.590 207.075,231.280 207.463,230.976 207.767 C 229.077 209.666,228.469 215.430,229.796 218.958 C 230.602 221.101,234.338 225.191,235.509 225.213 C 235.889 225.220,236.549 225.490,236.976 225.813 C 237.404 226.136,238.124 226.393,238.576 226.384 C 239.170 226.373,239.009 226.199,238.000 225.762 C 233.228 223.694,231.201 221.598,230.108 217.600 C 228.690 212.416,232.523 204.000,236.302 204.000 C 236.698 204.000,237.377 203.752,237.811 203.448 C 238.245 203.145,238.960 202.805,239.400 202.694 L 240.200 202.493 239.400 202.461 C 238.960 202.444,237.790 202.806,236.800 203.267 M257.994 203.007 C 256.947 204.269,257.681 218.991,258.922 221.600 C 260.003 223.873,263.063 226.418,264.676 226.385 C 265.077 226.377,264.668 226.027,263.762 225.602 C 259.347 223.530,258.400 220.756,258.400 209.887 C 258.400 203.978,258.478 203.194,259.100 202.832 C 259.714 202.475,259.720 202.423,259.149 202.412 C 258.791 202.405,258.271 202.673,257.994 203.007 M270.080 202.880 C 269.746 203.214,269.600 205.324,269.600 209.800 C 269.600 214.276,269.454 216.386,269.120 216.720 C 268.853 216.987,268.818 217.200,269.040 217.200 C 270.201 217.200,270.400 216.106,270.400 209.740 C 270.400 203.971,270.479 203.194,271.100 202.832 C 271.676 202.496,271.690 202.422,271.180 202.412 C 270.839 202.405,270.344 202.616,270.080 202.880 M281.867 202.667 C 281.720 202.813,281.600 205.927,281.600 209.587 C 281.600 214.374,281.460 216.381,281.100 216.744 C 280.699 217.147,280.731 217.198,281.261 216.996 C 282.239 216.624,282.389 215.588,282.395 209.120 C 282.399 203.945,282.484 203.191,283.100 202.832 C 283.737 202.461,283.725 202.423,282.967 202.412 C 282.508 202.405,282.013 202.520,281.867 202.667 M304.176 203.033 C 303.411 203.656,303.411 203.661,304.200 203.383 C 304.640 203.228,305.540 202.962,306.200 202.791 L 307.400 202.482 306.176 202.441 C 305.504 202.418,304.604 202.685,304.176 203.033 M87.312 203.570 C 92.518 206.001,92.789 213.289,87.765 215.774 C 86.675 216.313,86.405 216.594,86.876 216.699 C 87.829 216.911,89.519 215.704,90.859 213.856 C 93.725 209.899,90.768 202.587,86.400 202.831 C 86.070 202.850,86.480 203.182,87.312 203.570 M214.538 203.531 C 215.118 204.173,215.200 205.549,215.200 214.699 C 215.200 224.517,215.320 226.399,215.943 226.400 C 216.084 226.401,216.110 221.388,216.000 215.261 C 215.799 204.063,215.626 202.800,214.289 202.800 C 214.062 202.800,214.174 203.129,214.538 203.531 M301.322 204.558 C 299.522 206.073,298.400 208.720,298.400 211.451 C 298.400 214.448,297.022 216.800,295.266 216.800 C 293.466 216.800,293.200 217.417,293.200 221.600 C 293.200 225.469,293.502 226.400,294.756 226.400 C 295.235 226.400,295.216 226.300,294.661 225.894 C 294.070 225.462,293.986 224.805,294.084 221.409 L 294.200 217.431 295.471 217.172 C 297.585 216.741,298.773 215.001,298.787 212.311 C 298.803 209.473,300.168 206.203,301.971 204.686 C 302.681 204.089,303.081 203.600,302.861 203.600 C 302.641 203.600,301.949 204.031,301.322 204.558 M242.058 209.482 C 242.641 209.572,243.430 209.991,243.813 210.414 C 244.617 211.303,244.435 211.415,241.667 211.733 C 239.542 211.978,239.520 211.999,239.520 213.825 C 239.520 215.285,240.053 215.982,241.176 215.994 C 241.609 215.998,241.576 215.871,241.045 215.482 C 239.434 214.305,240.340 212.217,242.521 212.077 C 243.831 211.994,244.521 211.751,244.688 211.315 C 245.020 210.449,243.399 209.184,242.056 209.260 L 241.000 209.320 242.058 209.482 M118.690 212.769 C 119.531 213.471,119.585 213.856,119.690 219.856 L 119.800 226.200 120.800 226.311 C 121.665 226.407,121.706 226.364,121.100 225.991 C 120.487 225.614,120.400 224.863,120.400 219.960 C 120.400 214.019,119.911 211.986,118.490 212.013 C 117.906 212.025,117.936 212.140,118.690 212.769 M81.773 217.327 C 81.266 218.648,81.797 226.190,82.400 226.234 C 82.772 226.261,82.805 226.212,82.487 226.107 C 82.102 225.979,82.002 224.867,82.087 221.668 L 82.200 217.400 84.000 217.160 L 85.800 216.920 83.887 216.860 C 82.628 216.821,81.906 216.980,81.773 217.327 M277.776 225.805 C 278.204 226.132,278.909 226.400,279.343 226.400 C 280.357 226.400,280.136 226.228,278.400 225.665 C 277.128 225.252,277.071 225.265,277.776 225.805 M173.400 226.000 C 172.960 226.189,172.825 226.356,173.100 226.372 C 173.980 226.421,173.638 227.097,172.300 227.954 C 170.599 229.043,171.532 229.049,173.377 227.960 C 175.385 226.776,175.404 225.139,173.400 226.000 M166.267 229.067 C 166.120 229.213,166.000 230.948,166.000 232.921 C 166.000 237.076,166.832 238.439,169.321 238.359 L 170.600 238.318 169.220 237.993 C 168.460 237.814,167.605 237.348,167.320 236.958 C 166.643 236.032,166.611 229.949,167.280 229.280 C 167.653 228.907,167.624 228.800,167.147 228.800 C 166.809 228.800,166.413 228.920,166.267 229.067 " stroke="none" fill="#acb4fc" fill-rule="evenodd"></path><path id="path4" d="M137.062 190.700 C 136.960 190.865,137.676 190.936,138.653 190.859 C 141.842 190.605,143.590 192.355,143.588 195.800 C 143.588 197.628,143.486 197.813,141.669 199.306 C 140.702 200.101,140.529 200.400,141.034 200.400 C 143.968 200.400,145.134 193.707,142.590 191.471 C 141.412 190.435,137.558 189.898,137.062 190.700 M89.346 193.802 C 90.790 194.556,91.027 194.555,90.400 193.800 C 90.126 193.470,89.519 193.201,89.051 193.202 C 88.313 193.205,88.353 193.285,89.346 193.802 M157.800 209.700 L 157.800 226.200 153.600 226.429 L 149.400 226.658 153.800 226.629 L 158.200 226.600 158.304 209.900 C 158.362 200.715,158.272 193.200,158.104 193.200 C 157.937 193.200,157.800 200.625,157.800 209.700 M217.600 193.356 C 217.600 193.442,218.372 193.875,219.316 194.318 C 224.716 196.857,225.351 198.808,225.534 213.416 C 225.710 227.566,226.219 226.322,220.176 226.501 L 215.800 226.630 220.438 226.715 C 226.931 226.834,226.462 227.797,226.275 214.754 C 226.119 203.897,225.635 199.275,224.594 198.692 C 224.267 198.510,223.994 198.144,223.987 197.880 C 223.969 197.228,222.576 195.600,222.036 195.600 C 221.796 195.600,221.600 195.438,221.600 195.240 C 221.600 195.043,220.874 194.503,219.988 194.040 C 218.471 193.250,217.600 193.000,217.600 193.356 M148.582 209.800 C 148.582 218.600,148.635 222.143,148.700 217.673 C 148.764 213.204,148.764 206.004,148.699 201.673 C 148.635 197.343,148.582 201.000,148.582 209.800 M92.271 194.678 C 92.750 194.772,93.357 195.107,93.620 195.424 C 93.883 195.741,94.308 196.000,94.564 196.000 C 95.549 196.000,99.101 199.887,100.229 202.200 C 101.761 205.340,101.968 214.307,100.567 216.800 C 98.551 220.387,97.052 222.067,94.262 223.866 C 93.416 224.412,92.814 224.948,92.924 225.058 C 93.783 225.917,100.400 219.545,100.400 217.859 C 100.400 217.544,100.670 217.182,101.000 217.055 C 101.375 216.911,101.600 216.301,101.600 215.427 C 101.600 214.657,101.886 213.185,102.236 212.156 C 103.268 209.114,101.237 200.000,99.526 200.000 C 99.347 200.000,99.200 199.795,99.200 199.545 C 99.200 198.876,95.511 195.619,94.743 195.609 C 94.381 195.604,93.982 195.330,93.855 195.000 C 93.719 194.644,93.172 194.422,92.513 194.454 C 91.614 194.498,91.568 194.542,92.271 194.678 M121.146 203.016 C 122.837 203.750,123.020 203.747,122.400 203.000 C 122.126 202.670,121.429 202.407,120.851 202.416 C 119.845 202.431,119.857 202.456,121.146 203.016 M143.400 214.300 L 143.400 226.200 139.200 226.429 L 135.000 226.658 139.400 226.629 L 143.800 226.600 143.906 214.500 C 143.964 207.845,143.874 202.400,143.706 202.400 C 143.538 202.400,143.400 207.755,143.400 214.300 M171.694 202.864 C 172.295 203.328,172.403 204.286,172.494 209.995 C 172.594 216.234,172.643 216.597,173.400 216.731 C 174.144 216.862,174.151 216.834,173.506 216.336 C 172.905 215.872,172.797 214.914,172.706 209.205 C 172.606 202.966,172.557 202.603,171.800 202.469 C 171.056 202.338,171.049 202.366,171.694 202.864 M184.320 202.880 C 184.930 203.490,184.993 224.074,184.394 227.231 C 183.561 231.623,180.783 235.183,176.621 237.192 C 175.533 237.718,174.868 238.223,175.144 238.315 C 175.420 238.407,175.965 238.194,176.355 237.841 C 176.744 237.488,177.329 237.200,177.655 237.200 C 178.504 237.200,182.873 232.857,183.691 231.200 C 185.146 228.249,185.359 226.320,185.492 214.856 C 185.624 203.558,185.510 202.400,184.271 202.400 C 183.990 202.400,184.007 202.567,184.320 202.880 M245.200 202.556 C 245.200 202.642,245.965 203.075,246.900 203.520 C 251.202 205.564,254.000 209.439,254.000 213.353 C 254.000 214.552,253.816 215.625,253.590 215.737 C 253.365 215.849,253.410 215.892,253.690 215.833 C 254.400 215.685,254.409 209.536,253.700 209.300 C 253.425 209.208,253.200 208.879,253.200 208.568 C 253.200 207.833,250.460 204.800,249.796 204.800 C 249.515 204.800,249.182 204.530,249.055 204.200 C 248.929 203.870,248.571 203.600,248.262 203.600 C 247.952 203.600,247.474 203.330,247.200 203.000 C 246.766 202.477,245.200 202.129,245.200 202.556 M267.237 209.499 C 267.505 217.529,267.406 216.800,268.223 216.800 C 268.786 216.800,268.786 216.716,268.223 215.911 C 267.723 215.198,267.600 213.776,267.600 208.711 C 267.600 205.240,267.465 202.400,267.300 202.399 C 267.135 202.399,267.107 205.594,267.237 209.499 M278.690 202.864 C 279.021 203.265,279.215 205.582,279.290 210.024 C 279.394 216.237,279.443 216.597,280.200 216.716 C 280.856 216.820,280.892 216.770,280.400 216.437 C 279.921 216.113,279.760 214.680,279.600 209.348 C 279.437 203.885,279.290 202.629,278.800 202.467 C 278.312 202.307,278.292 202.381,278.690 202.864 M290.700 202.841 C 291.334 203.499,291.397 217.875,290.776 220.111 C 289.801 223.621,286.348 225.989,281.600 226.405 L 278.600 226.668 281.871 226.734 C 284.180 226.780,285.304 226.639,285.690 226.253 C 285.991 225.952,286.609 225.588,287.063 225.443 C 288.442 225.006,290.895 222.022,291.334 220.249 C 292.180 216.834,291.913 202.632,291.000 202.467 C 290.353 202.350,290.296 202.422,290.700 202.841 M310.939 202.906 C 312.102 203.757,311.738 211.210,310.503 211.825 C 308.676 212.733,308.000 213.673,308.000 215.302 C 308.000 217.963,305.633 222.764,303.612 224.202 C 302.841 224.751,302.477 225.194,302.805 225.186 C 304.843 225.136,308.386 219.205,308.411 215.800 C 308.426 213.697,309.039 212.883,311.100 212.231 C 312.489 211.791,312.512 202.400,311.124 202.400 C 310.319 202.400,310.304 202.441,310.939 202.906 M80.589 203.300 C 80.487 203.575,80.357 208.840,80.301 215.000 L 80.200 226.200 75.600 226.427 L 71.000 226.654 75.800 226.627 L 80.600 226.600 80.706 214.918 L 80.812 203.236 83.506 203.096 L 86.200 202.957 83.487 202.878 C 81.623 202.824,80.717 202.956,80.589 203.300 M211.990 203.826 C 211.772 204.399,211.600 209.521,211.600 215.418 L 211.600 225.985 210.700 226.193 C 210.205 226.308,208.000 226.454,205.800 226.517 L 201.800 226.633 206.267 226.716 C 212.631 226.836,211.999 227.986,212.004 216.257 C 212.010 204.603,212.141 203.313,213.349 203.076 C 214.163 202.916,214.160 202.907,213.290 202.854 C 212.654 202.816,212.263 203.109,211.990 203.826 M123.806 203.978 C 127.814 205.604,129.000 208.851,129.000 218.200 L 129.000 226.200 124.800 226.422 L 120.600 226.643 124.838 226.722 C 130.646 226.829,130.489 227.042,130.278 219.346 C 130.115 213.416,129.388 209.036,128.341 207.682 C 126.851 205.754,124.417 203.603,123.753 203.625 C 123.055 203.649,123.058 203.674,123.806 203.978 M239.962 210.300 C 237.231 213.701,238.923 218.978,242.521 218.280 C 243.293 218.130,243.274 218.102,242.362 218.054 C 239.623 217.911,238.511 212.736,240.696 210.300 C 241.041 209.915,241.144 209.600,240.924 209.600 C 240.704 209.600,240.271 209.915,239.962 210.300 M114.654 212.829 C 113.202 213.971,113.766 216.800,115.446 216.800 C 115.836 216.800,115.763 216.563,115.200 216.000 C 113.684 214.484,114.577 212.644,117.000 212.293 L 118.200 212.120 116.954 212.060 C 116.223 212.025,115.272 212.343,114.654 212.829 M257.701 217.800 C 257.705 218.680,257.787 218.993,257.883 218.495 C 257.979 217.998,257.975 217.278,257.875 216.895 C 257.775 216.513,257.696 216.920,257.701 217.800 M81.200 221.557 C 81.200 227.128,80.898 226.800,86.034 226.800 C 88.839 226.800,89.923 226.629,91.096 226.000 C 91.986 225.523,92.300 225.200,91.874 225.200 C 91.482 225.200,90.625 225.477,89.970 225.815 C 89.103 226.264,87.834 226.400,85.290 226.315 L 81.800 226.200 81.800 221.500 C 81.800 218.914,81.665 216.799,81.500 216.800 C 81.335 216.800,81.200 218.941,81.200 221.557 M118.384 217.381 C 118.665 217.719,118.787 219.442,118.714 222.058 L 118.600 226.200 115.600 226.428 L 112.600 226.656 115.050 226.728 C 116.398 226.768,118.018 226.697,118.650 226.571 L 119.800 226.342 119.678 221.654 C 119.564 217.282,119.501 216.963,118.748 216.906 C 118.115 216.858,118.036 216.962,118.384 217.381 M246.512 220.100 C 248.787 222.537,249.431 223.840,248.760 224.649 C 248.241 225.274,248.709 225.372,249.582 224.820 C 250.547 224.209,246.417 218.000,245.045 218.000 C 244.774 218.000,245.434 218.945,246.512 220.100 M273.400 224.800 C 273.254 225.036,273.695 225.197,274.476 225.194 C 275.478 225.189,275.654 225.093,275.200 224.800 C 274.422 224.297,273.711 224.297,273.400 224.800 M246.462 225.700 C 246.163 226.000,244.327 226.291,241.882 226.428 L 237.800 226.655 241.800 226.725 C 245.196 226.784,245.981 226.675,247.000 226.000 C 247.711 225.529,247.947 225.204,247.580 225.203 C 247.239 225.201,246.736 225.425,246.462 225.700 M271.262 225.700 C 270.988 225.975,269.287 226.305,267.482 226.432 L 264.200 226.665 267.600 226.723 C 270.424 226.772,271.169 226.650,272.000 226.000 C 272.701 225.452,272.815 225.215,272.380 225.209 C 272.039 225.204,271.536 225.425,271.262 225.700 M276.946 225.802 C 278.405 226.563,278.775 226.568,277.776 225.813 C 277.349 225.490,276.730 225.221,276.400 225.215 C 276.070 225.210,276.316 225.474,276.946 225.802 M300.600 225.711 C 300.160 225.978,298.540 226.304,297.000 226.434 L 294.200 226.671 297.256 226.735 C 299.769 226.789,300.479 226.660,301.256 226.013 C 302.297 225.146,301.861 224.944,300.600 225.711 M169.300 226.691 C 170.125 226.778,171.475 226.778,172.300 226.691 C 173.125 226.605,172.450 226.534,170.800 226.534 C 169.150 226.534,168.475 226.605,169.300 226.691 M168.100 228.687 C 168.705 228.778,169.695 228.778,170.300 228.687 C 170.905 228.595,170.410 228.520,169.200 228.520 C 167.990 228.520,167.495 228.595,168.100 228.687 " stroke="none" fill="#ac09fc" fill-rule="evenodd"></path></g></svg>