<?xml version="1.0" standalone="no"?>
<!DOCTYPE svg PUBLIC "-//W3C//DTD SVG 20010904//EN"
 "http://www.w3.org/TR/2001/REC-SVG-20010904/DTD/svg10.dtd">
<svg version="1.0" xmlns="http://www.w3.org/2000/svg"
 width="304.000000pt" height="488.000000pt" viewBox="0 0 304.000000 488.000000"
 preserveAspectRatio="xMidYMid meet">

<g transform="translate(0.000000,488.000000) scale(0.100000,-0.100000)"
fill="#000000" stroke="none">
<path d="M0 2440 l0 -2440 1520 0 1520 0 0 2440 0 2440 -1520 0 -1520 0 0
-2440z m1078 981 c8 -4 12 -19 10 -32 -4 -29 -45 -34 -61 -7 -19 30 19 60 51
39z m-373 -25 c57 -24 84 -115 51 -174 -18 -33 -66 -62 -103 -62 -31 0 -33 2
-33 33 0 28 4 34 33 42 27 9 33 15 35 45 4 38 -16 60 -55 60 -22 0 -23 -3 -23
-90 l0 -90 -40 0 -40 0 0 125 0 125 70 0 c39 0 86 -6 105 -14z m495 -111 l0
-125 -35 0 -35 0 0 125 0 125 35 0 35 0 0 -125z m485 100 c23 -22 25 -31 25
-125 l0 -100 -35 0 -34 0 -3 87 c-2 58 -7 88 -15 91 -10 3 -13 -19 -13 -87 l0
-91 -40 0 -40 0 0 90 c0 49 5 100 11 114 23 50 104 62 144 21z m-730 -70 c22
-21 25 -33 25 -90 l0 -65 -34 0 -35 0 -3 53 c-3 44 -6 52 -22 52 -27 0 -33
-25 -7 -32 16 -4 21 -13 21 -39 0 -30 -3 -34 -26 -34 -37 0 -84 50 -84 90 0
77 110 121 165 65z m135 -65 l0 -90 -35 0 -35 0 0 90 0 90 35 0 35 0 0 -90z
m220 35 c0 -30 5 -55 10 -55 6 0 10 25 10 55 l0 55 35 0 35 0 0 -106 c0 -104
0 -106 -30 -135 -24 -25 -37 -30 -67 -27 -35 3 -38 6 -41 36 -3 28 0 32 22 32
14 0 28 5 31 10 3 6 -4 10 -16 10 -44 0 -59 27 -59 107 l0 73 35 0 35 0 0 -55z
m591 26 c16 -16 29 -39 29 -50 0 -19 -6 -21 -55 -21 -42 0 -55 3 -55 15 0 9 9
15 22 15 17 0 19 3 10 12 -9 10 -16 8 -29 -5 -21 -21 -8 -50 23 -55 28 -4 50
-42 32 -53 -51 -33 -138 19 -138 81 0 46 47 90 95 90 27 0 44 -8 66 -29z m129
-26 c0 -30 5 -55 10 -55 6 0 10 25 10 55 l0 55 35 0 35 0 0 -55 c0 -30 5 -55
10 -55 6 0 10 25 10 55 l0 55 35 0 35 0 0 -70 c0 -88 -20 -115 -78 -106 -21 3
-41 6 -47 6 -5 0 -26 -3 -47 -6 -58 -9 -78 18 -78 106 l0 70 35 0 35 0 0 -55z
m340 21 c0 -19 -6 -36 -14 -39 -7 -3 -16 -19 -19 -35 -8 -40 -44 -72 -79 -72
-25 0 -28 3 -28 35 0 23 5 35 14 35 16 0 26 21 26 55 0 29 34 55 72 55 25 0
28 -4 28 -34z"/>
</g>
</svg>
